<svg xmlns="http://www.w3.org/2000/svg" width="23.032" height="28.306" viewBox="0 0 23.032 28.306">
  <g id="Group_159" data-name="Group 159" transform="translate(-1783.153 -1005.206)">
    <g id="Group_157" data-name="Group 157">
      <path id="Path_76" data-name="Path 76" d="M1802.389,1020.259a6.434,6.434,0,0,1,3.063-5.4,6.587,6.587,0,0,0-5.187-2.806c-2.184-.23-4.3,1.308-5.411,1.308-1.135,0-2.848-1.284-4.692-1.248a6.912,6.912,0,0,0-5.815,3.547c-2.514,4.353-.638,10.749,1.77,14.268,1.2,1.722,2.613,3.649,4.455,3.578,1.8-.073,2.476-1.148,4.654-1.148,2.155,0,2.788,1.148,4.669,1.106,1.934-.031,3.152-1.73,4.316-3.47a14.24,14.24,0,0,0,1.974-4.019,6.22,6.22,0,0,1-3.8-5.72" fill="#fff"/>
    </g>
    <g id="Group_158" data-name="Group 158">
      <path id="Path_77" data-name="Path 77" d="M1798.839,1009.742a6.332,6.332,0,0,0,1.449-4.536,6.454,6.454,0,0,0-4.169,2.157,6.009,6.009,0,0,0-1.487,4.369,5.33,5.33,0,0,0,4.207-1.99" fill="#fff"/>
    </g>
  </g>
</svg>
