<svg xmlns="http://www.w3.org/2000/svg" width="46.776" height="30.499" viewBox="0 0 46.776 30.499">
  <g id="Group_51" data-name="Group 51" transform="translate(-1033.48 -1001.213)">
    <g id="Group_50" data-name="Group 50">
      <g id="Group_44" data-name="Group 44">
        <path id="Path_21" data-name="Path 21" d="M1058.575,1012.433c-.345.792-.764,1.758-1.129,2.6a2.474,2.474,0,0,1-.045-.511c-.024-.289-.035-.58-.07-.867a1.442,1.442,0,0,0-.118-.415.576.576,0,0,0-.764-.339,1.638,1.638,0,0,0-.45.24,6.59,6.59,0,0,0-.568.49,7.509,7.509,0,0,1-1.785,1.263,1.623,1.623,0,0,1-.744.17q-3.955,0-7.91,0h-.188c-.019-.086-.034-.161-.052-.236a.382.382,0,0,0-.527-.324,1.7,1.7,0,0,0-.385.15c-.231.126-.451.273-.681.4-.31.173-.624.339-.938.5a.642.642,0,0,1-.206.068c-.067.008-.164.014-.2-.024s-.016-.136.008-.2a1.727,1.727,0,0,1,.15-.277c.324-.535.659-1.064.973-1.6a23.063,23.063,0,0,0,1.532-3.12,4.412,4.412,0,0,0,.313-1.659c-.01-2.419,0-4.838,0-7.257v-.245h3.283c0,3.546,0,7.088,0,10.661.174-.018.322-.027.469-.05a5.727,5.727,0,0,0,1.666-.6,12.742,12.742,0,0,0,2.356-1.48,2.694,2.694,0,0,1,.343-.233.754.754,0,0,1,.219-.086c.17-.036.277.039.279.212a1.313,1.313,0,0,1-.056.388c-.067.22-.158.433-.235.65-.064.18-.126.361-.181.543a.742.742,0,0,0-.027.215.369.369,0,0,0,.309.4,1.8,1.8,0,0,0,.352.04c.2.007.4,0,.594,0,.058,0,.115.007.184.011a16.283,16.283,0,0,0,.078,1.813.8.8,0,0,0,.09-.11c.869-1.863,1.733-3.728,2.606-5.589q1.545-3.293,3.1-6.579c.123-.261.055-.229.363-.23h2.165c.032.061.065.117.092.175q1.236,2.619,2.475,5.236a.676.676,0,0,1,.018.588c-.1.224-.2.444-.3.668a.619.619,0,0,0-.107.346c.082.07.159.028.228,0,.133-.057.262-.125.392-.188.048-.023.095-.047.144-.066.173-.066.23-.046.312.125.213.446.422.894.633,1.341q1.278,2.707,2.555,5.416c.025.054.048.108.085.192-.085.005-.153.012-.221.012-.9,0-1.793,0-2.689,0a1.847,1.847,0,0,0-.661.1.3.3,0,0,1-.1.024,1.492,1.492,0,0,0-.974.43c-.335.286-.647.6-.961.909-.263.259-.511.532-.774.791a.447.447,0,0,1-.34.177.318.318,0,0,1-.036-.32c.089-.358.179-.715.283-1.069.279-.949.651-1.865,1.015-2.784a.788.788,0,0,0,.022-.52.436.436,0,0,0-.365-.345,1.441,1.441,0,0,0-.236-.023q-2.283,0-4.568,0C1058.652,1012.424,1058.627,1012.428,1058.575,1012.433Zm2.971-6.381-1.666,3.563h2.4a1.286,1.286,0,0,1,.2.008c.115.018.148.068.116.18-.022.078-.057.153-.087.23l.036.02c.115-.167.231-.333.344-.5a.511.511,0,0,0,.029-.555c-.429-.9-.842-1.815-1.262-2.724C1061.63,1006.214,1061.6,1006.157,1061.546,1006.052Z" fill="#cac9d5"/>
      </g>
      <g id="Group_45" data-name="Group 45">
        <path id="Path_22" data-name="Path 22" d="M1033.48,1015.87a1.407,1.407,0,0,1,.027-.271,2.935,2.935,0,0,0,.114-.953q.006-6.574,0-13.147v-.266c.073-.007.13-.016.187-.016,1.687,0,3.374-.011,5.061,0a4.328,4.328,0,0,1,2.768.954,3.744,3.744,0,0,1,1.363,2.465,3.858,3.858,0,0,1-.862,3.1c-.02.024-.037.051-.063.088l.154.128a3.838,3.838,0,0,1,1.315,2.019,1.869,1.869,0,0,1-.005.919,7.33,7.33,0,0,1-.5,1.455,14.986,14.986,0,0,1-.928,1.72,9.331,9.331,0,0,1-1.368,1.608.47.47,0,0,1-.3.168.941.941,0,0,1-.046-.144c-.01-.058-.007-.118-.013-.177a.423.423,0,0,0-.392-.425,2,2,0,0,0-.354-.028q-2.175-.006-4.349-.005a.833.833,0,0,0-.345.062c-.28.132-.549.284-.821.431-.127.069-.247.152-.376.218A2.1,2.1,0,0,1,1033.48,1015.87Zm2.708-2.872.038.047a.879.879,0,0,0,.2-.058c.149-.085.29-.181.435-.273.167-.1.331-.214.5-.313a1.153,1.153,0,0,1,.623-.158c.243.005.488,0,.731-.015a2.149,2.149,0,0,0,.959-.277,1.284,1.284,0,0,0,.624-.783,1.447,1.447,0,0,0-.692-1.64,1.717,1.717,0,0,0-.85-.226c-.573-.005-1.146,0-1.719,0-.051,0-.1.008-.175.015v.221c0,.58-.007,1.16,0,1.739a1.43,1.43,0,0,1-.17.7c-.137.263-.268.528-.4.793C1036.254,1012.844,1036.223,1012.921,1036.188,1013Zm.671-6.217a10.32,10.32,0,0,0,1.685-.046,2.225,2.225,0,0,0,.474-.132,1.212,1.212,0,0,0,.814-1.028,1.369,1.369,0,0,0-.525-1.348,1.782,1.782,0,0,0-.871-.345.572.572,0,0,0-.321.055,4.6,4.6,0,0,0-.474.317c-.173.12-.342.245-.517.36-.063.042-.149.1-.213.035a.291.291,0,0,1-.026-.2c.01-.091.047-.178.064-.268a.853.853,0,0,0,.013-.214c0-.033-.044-.063-.067-.094-.111.273-.212.528-.317.781a.48.48,0,0,0,.128.606.444.444,0,0,1,.153.369c0,.257,0,.514,0,.771Z" fill="#cac9d5"/>
      </g>
      <g id="Group_46" data-name="Group 46">
        <path id="Path_23" data-name="Path 23" d="M1046.12,1015.548h.226c1.174,0,2.347,0,3.52,0a.316.316,0,0,1,.3.168q1.245,1.914,2.5,3.821c.036.054.074.106.12.171.04-.053.074-.091.1-.134.328-.526.667-1.045.977-1.58a25.326,25.326,0,0,1,1.669-2.544c.357-.472.68-.971,1.019-1.458q.2-.291.412-.58a1.58,1.58,0,0,1,.109-.119.764.764,0,0,1,.1.45c-.011.256-.039.511-.063.767-.014.144-.042.287-.05.432a1.251,1.251,0,0,0,.021.293.345.345,0,0,0,.288.29,1.4,1.4,0,0,0,.274.025c.527,0,1.055,0,1.582,0h.257c-.052.083-.085.142-.124.2-.87,1.24-1.745,2.479-2.611,3.722-.634.908-1.274,1.81-1.966,2.676-.341.426-.638.889-.943,1.342a7.8,7.8,0,0,0-.8,1.693,2.17,2.17,0,0,0-.1.918c.016.194.13.241.277.111a2.374,2.374,0,0,0,.3-.337c.26-.34.505-.692.77-1.028a2.648,2.648,0,0,1,1.036-.805,1.664,1.664,0,0,1,.436-.112.4.4,0,0,1,.378.171q.054.07.1.144l3.483,4.97c.034.048.063.1.1.149-.151.044-3.525.062-3.959.023l-.321-.488q-.433-.662-.865-1.324c-.026-.038-.05-.077-.076-.115a.538.538,0,0,0-.779-.229c-.164.069-.319.161-.485.223a1.83,1.83,0,0,1-.473.126.653.653,0,0,1-.7-.435c-.059-.145-.09-.3-.137-.461a2.373,2.373,0,0,0-.968.69c-.236.365-.489.719-.731,1.08-.184.274-2.038,2.865-2.215,3.143a.218.218,0,0,1-.2.119q-1.868,0-3.737,0c-.025,0-.05-.006-.112-.013.565-.81,2.8-3.913,3.351-4.7s1.114-1.585,1.67-2.378l1.679-2.39Z" fill="#cac9d5"/>
      </g>
      <g id="Group_47" data-name="Group 47">
        <path id="Path_24" data-name="Path 24" d="M1080.25,1025.314a3.826,3.826,0,0,0-.837-2.319,4.736,4.736,0,0,0-1.22-1.027,9.308,9.308,0,0,0-1.531-.732c-.226-.086-.254-.128-.235-.368.012-.157.042-.313.056-.47a2.512,2.512,0,0,0-.005-.261c-.135-.039-.2.04-.268.093-.194.148-.386.3-.581.444a.307.307,0,0,1-.351.028c-.159-.081-.33-.139-.481-.231a4.15,4.15,0,0,1-.665-.457.81.81,0,0,1-.073-1.156,1.372,1.372,0,0,1,.893-.5,3.133,3.133,0,0,1,1.33.1c.175.047.2.11.176.293a1.747,1.747,0,0,0-.033.313.2.2,0,0,0,.245.214.774.774,0,0,0,.209-.053,2.6,2.6,0,0,0,.251-.115.287.287,0,0,1,.389.065c.086.1.187.178.29.273l2.258-2.284c-.181-.165-.345-.306-.5-.458a.9.9,0,0,0-.644-.25c-.169-.005-.338-.03-.512-.047-.005-.1-.011-.177-.012-.255a.311.311,0,0,0-.217-.318c-.186-.068-.366-.151-.554-.212a7.857,7.857,0,0,0-2.713-.331,4.77,4.77,0,0,0-1.639.334,4,4,0,0,0-2.716,3.456,3.743,3.743,0,0,0,.688,2.657,4.606,4.606,0,0,0,1.452,1.291,11.847,11.847,0,0,0,1.688.771q.756.293,1.5.606a2.473,2.473,0,0,1,.718.449.845.845,0,0,1,.061,1.221,2.393,2.393,0,0,1-.374.321,10.839,10.839,0,0,0-1.627,1.468c-.174.189-.349.377-.529.56a.908.908,0,0,1-.2.159c-.166.095-.235.065-.287-.116a.621.621,0,0,1-.022-.155c0-.336.006-.672-.009-1.008a6.27,6.27,0,0,0-.085-.822.967.967,0,0,0-.442-.631c-.234-.159-.453-.34-.678-.511l-.148-.111-2.29,2.318.081.064a11.024,11.024,0,0,0,1.578,1.12.743.743,0,0,1,.2.164,2.639,2.639,0,0,1,.75,1.13c.193.5.049,1.539.327,1.588.213.038.389-.167.542-.313.258-.245.5-.5.751-.758a4.705,4.705,0,0,1,.823-.707,1.281,1.281,0,0,1,.709-.207,4.7,4.7,0,0,0,2.7-.824A3.8,3.8,0,0,0,1080.25,1025.314Z" fill="#cac9d5"/>
      </g>
      <g id="Group_48" data-name="Group 48">
        <path id="Path_25" data-name="Path 25" d="M1046.8,1018.233l-2.245,2.31c-.077-.109-.144-.205-.213-.3s-.142-.191-.214-.285a.534.534,0,0,0-.651-.192,1.645,1.645,0,0,0-.48.265,5.549,5.549,0,0,0-.564.553c-.263.286-.51.587-.771.875a2.813,2.813,0,0,1-.373.351c-.144.109-.238.068-.251-.114a4.292,4.292,0,0,1,.006-.63,10.106,10.106,0,0,0,.057-1.7,3.357,3.357,0,0,0-.062-.389.336.336,0,0,0-.315-.283,1.325,1.325,0,0,0-.333,0q-.558.081-1.112.179a1.966,1.966,0,0,0-.857.387,3.931,3.931,0,0,0-1.061,5.206,1.617,1.617,0,0,1,.2,1.246,9.847,9.847,0,0,1-.635,1.93c-.242.548-.482,1.1-.712,1.651a3,3,0,0,0-.147.531.221.221,0,0,0,.053.188.238.238,0,0,0,.2-.026,2.615,2.615,0,0,0,.378-.285c.432-.4.856-.8,1.287-1.2s.833-.769,1.26-1.142a4.713,4.713,0,0,1,1.039-.681,1.544,1.544,0,0,1,.685-.167,3.968,3.968,0,0,0,3.2-1.619c.144-.179.271-.37.419-.575l2.274,2.34c-.091.112-.171.215-.256.314a7.358,7.358,0,0,1-3.975,2.475,7.589,7.589,0,0,1-3.546-.027,1.22,1.22,0,0,0-.827.081,5.518,5.518,0,0,0-1.094.706c-.222.176-.441.358-.677.512a1.974,1.974,0,0,1-.519.233.515.515,0,0,1-.644-.347,1.246,1.246,0,0,1-.009-.759c.095-.369.213-.733.307-1.1a5.019,5.019,0,0,0,.13-.7.881.881,0,0,0-.26-.717,6.9,6.9,0,0,1-1.894-4.128,7.1,7.1,0,0,1,4.081-7.188,6.385,6.385,0,0,1,1.377-.484,1.55,1.55,0,0,1,.451-.023.25.25,0,0,1,.253.309,1.64,1.64,0,0,1-.09.383c-.088.262-.2.517-.277.781a1.17,1.17,0,0,0-.037.409.391.391,0,0,0,.413.393,1.209,1.209,0,0,0,.458-.093,6.53,6.53,0,0,0,.764-.412,11.864,11.864,0,0,1,2.181-1.15c.173-.063.351-.112.529-.158a.6.6,0,0,1,.423.055,7.493,7.493,0,0,1,2.663,2.162C1046.792,1018.193,1046.792,1018.2,1046.8,1018.233Z" fill="#cac9d5"/>
      </g>
      <g id="Group_49" data-name="Group 49">
        <path id="Path_26" data-name="Path 26" d="M1069.523,1028.917c.013-.816,0-2.3-.04-2.431h-.189c-.3,0-.594.011-.89,0a1.793,1.793,0,0,0-1.115.253c-.173.114-.224.088-.328-.092a.282.282,0,0,0-.272-.158c-.066,0-.132,0-.2,0q-1.453,0-2.907,0c-.076,0-.152-.007-.231-.01v-2.921c.1.049.186.08.261.126a.636.636,0,0,0,.586.061c.049-.018.1-.031.149-.054a1.6,1.6,0,0,1,.711-.135q2.056.006,4.113,0c.083,0,.166-.006.256-.01v-2.735h-.217c-.428,0-.857.011-1.285,0a1.507,1.507,0,0,0-.777.183c-.279.148-.558.3-.84.44a1.671,1.671,0,0,1-.313.12c-.09.025-.144-.027-.125-.119a2.2,2.2,0,0,1,.092-.281c.11-.294.081-.339-.225-.339h-2.383c0-.084-.009-.148-.01-.212,0-.263,0-.527,0-.791a.94.94,0,0,0-.327-.835,4.035,4.035,0,0,1,.8-.505,1.277,1.277,0,0,1,.457-.1c1.239-.008,2.479,0,3.718-.005a.4.4,0,0,1,.32.123.248.248,0,0,0,.323.059,1.683,1.683,0,0,1,.838-.19c.01,0,.021-.013.04-.026v-2.76h-.224c-1.114,0-2.228.005-3.342,0a1.626,1.626,0,0,0-.9.254,4.079,4.079,0,0,0-.446.326,10.513,10.513,0,0,0-1.321,1.413,8.51,8.51,0,0,1-1.292,1.3,1.444,1.444,0,0,1-.4.214.268.268,0,0,1-.379-.248.84.84,0,0,1,.016-.313c.067-.247.154-.489.228-.735.085-.283.177-.565.241-.854a2.158,2.158,0,0,0,.026-.922.469.469,0,0,0-.521-.433c-.3,0-.593,0-.89,0a1,1,0,0,0-.144.021v.224c0,.5.008,1,0,1.5a5.138,5.138,0,0,1-.068.825,6.01,6.01,0,0,0-.016,2.1,8.024,8.024,0,0,1,.084,1.141c.014.442,0,.884,0,1.325q0,3.224,0,6.447c0,.076,0,.152.007.239h4.057c.36,0,.36,0,.366.361,0,.136.007.278.147.342s.254-.035.351-.122a4.948,4.948,0,0,0,.376-.378.6.6,0,0,1,.488-.206c1.106.007,2.462,0,3.567,0C1069.553,1029.212,1069.393,1029.047,1069.523,1028.917Z" fill="#cac9d5"/>
      </g>
    </g>
  </g>
</svg>
