<svg xmlns="http://www.w3.org/2000/svg" width="31.944" height="31.579" viewBox="0 0 31.944 31.579">
  <g id="Group_18" data-name="Group 18" transform="translate(-843.534 -1000.624)">
    <g id="Group_17" data-name="Group 17">
      <path id="Path_7" data-name="Path 7" d="M875,1014.374l-14.487-13.356a1.487,1.487,0,0,0-2.016,0l-14.483,13.357a1.485,1.485,0,0,0-.479,1.092v15.249a1.487,1.487,0,0,0,1.487,1.487H855.1a1.487,1.487,0,0,0,1.487-1.487v-6.985a2.921,2.921,0,1,1,5.842,0v6.985a1.487,1.487,0,0,0,1.486,1.487h10.08a1.487,1.487,0,0,0,1.487-1.487v-15.249A1.489,1.489,0,0,0,875,1014.374Zm-2.495,14.855H865.4v-5.5a5.894,5.894,0,1,0-11.788,0v5.5h-7.1v-13.11l13-11.986,13,11.986Z" fill="#cac9d5"/>
    </g>
  </g>
</svg>
