<svg xmlns="http://www.w3.org/2000/svg" width="44.224" height="26.833" viewBox="0 0 44.224 26.833">
  <g id="Group_121" data-name="Group 121" transform="translate(-583.199 -1000.663)" opacity="0.65">
    <g id="Group_110" data-name="Group 110">
      <g id="Group_107" data-name="Group 107">
        <g id="Group_106" data-name="Group 106">
          <path id="Path_52" data-name="Path 52" d="M605.311,1015.936a7.636,7.636,0,1,1,7.636-7.636A7.645,7.645,0,0,1,605.311,1015.936Zm0-12.854a5.218,5.218,0,1,0,5.217,5.218A5.223,5.223,0,0,0,605.311,1003.082Z" fill="#fff"/>
        </g>
      </g>
      <g id="Group_109" data-name="Group 109">
        <g id="Group_108" data-name="Group 108">
          <path id="Path_53" data-name="Path 53" d="M597.984,1026.287v-2.844a7.445,7.445,0,0,1,7.044-7.5,7.336,7.336,0,0,1,7.611,7.323v3.023a1.209,1.209,0,0,0,1.209,1.209h0a1.209,1.209,0,0,0,1.21-1.209v-2.8a9.93,9.93,0,0,0-9.914-9.967,9.759,9.759,0,0,0-9.58,9.746v3.023a1.209,1.209,0,0,0,1.21,1.209h0A1.209,1.209,0,0,0,597.984,1026.287Z" fill="#fff"/>
        </g>
      </g>
    </g>
    <g id="Group_115" data-name="Group 115">
      <g id="Group_112" data-name="Group 112">
        <g id="Group_111" data-name="Group 111">
          <path id="Path_54" data-name="Path 54" d="M590.683,1019.534a5.932,5.932,0,1,1,5.933-5.933A5.94,5.94,0,0,1,590.683,1019.534Zm0-9.446a3.513,3.513,0,1,0,3.513,3.513A3.517,3.517,0,0,0,590.683,1010.088Z" fill="#fff"/>
        </g>
      </g>
      <g id="Group_114" data-name="Group 114">
        <g id="Group_113" data-name="Group 113">
          <path id="Path_55" data-name="Path 55" d="M585.619,1026.287v-1.53a5.167,5.167,0,0,1,4.936-5.221,5.052,5.052,0,0,1,5.028,3.775,1.267,1.267,0,0,0,1.4.978,1.21,1.21,0,0,0,.97-1.481,7.467,7.467,0,0,0-7.571-5.687,7.613,7.613,0,0,0-7.181,7.673v1.493a1.21,1.21,0,0,0,1.21,1.209h0A1.209,1.209,0,0,0,585.619,1026.287Z" fill="#fff"/>
        </g>
      </g>
    </g>
    <g id="Group_120" data-name="Group 120">
      <g id="Group_117" data-name="Group 117">
        <g id="Group_116" data-name="Group 116">
          <path id="Path_56" data-name="Path 56" d="M619.939,1019.534a5.932,5.932,0,1,1,5.933-5.933A5.94,5.94,0,0,1,619.939,1019.534Zm0-9.446a3.513,3.513,0,1,0,3.514,3.513A3.517,3.517,0,0,0,619.939,1010.088Z" fill="#fff"/>
        </g>
      </g>
      <g id="Group_119" data-name="Group 119">
        <g id="Group_118" data-name="Group 118">
          <path id="Path_57" data-name="Path 57" d="M613.641,1024.289a1.268,1.268,0,0,0,1.4-.978,5.052,5.052,0,0,1,5.027-3.775,5.168,5.168,0,0,1,4.937,5.221v1.53a1.209,1.209,0,0,0,1.209,1.209h0a1.209,1.209,0,0,0,1.21-1.209v-1.493a7.612,7.612,0,0,0-7.181-7.673,7.467,7.467,0,0,0-7.571,5.687A1.21,1.21,0,0,0,613.641,1024.289Z" fill="#fff"/>
        </g>
      </g>
    </g>
  </g>
</svg>
