<svg xmlns="http://www.w3.org/2000/svg" width="38.69" height="48.589" viewBox="0 0 38.69 48.589">
  <g id="Group_100" data-name="Group 100" transform="translate(-1291.724 -999.632)">
    <g id="Group_195" data-name="Group 195">
      <path id="Intersection_1" data-name="Intersection 1" d="M-3965.665-1316.047c-.794-2.818-.976-5.94.589-8.464,1.722-2.776,5.165-3.839,8.252-4.062.227-.017,4.906-.017,5.135,0,3.087.223,6.53,1.286,8.252,4.062,1.5,2.427,1.395,5.406.677,8.137a31.144,31.144,0,0,1-11.867,2.336A31.146,31.146,0,0,1-3965.665-1316.047Zm11.408-13.323h-.1a13.224,13.224,0,0,1-11.325-5.576,6.67,6.67,0,0,1-2.57-.632c-.134-.063-.265-.131-.4-.2A7.708,7.708,0,0,1-3970.3-1337c-.178-.175-.35-.357-.514-.548a9.908,9.908,0,0,1-2.291-6.458,10.546,10.546,0,0,1,.459-3.092l.013-.04q.122-.39.277-.772a9.353,9.353,0,0,1,1.173-2.1c.1-.138.213-.274.325-.407a8.23,8.23,0,0,1,.982-.983,7.318,7.318,0,0,1,2.062-1.231c1.05-.4,2.159-.638,3.22-1.012a14.7,14.7,0,0,0,3.755-1.829,4.007,4.007,0,0,0,1.305-1.39,1.533,1.533,0,0,0,.149-.549s-1.177.428-3.955,1.318c-2.7.867-2.515.36-2.5.331a13.254,13.254,0,0,1,11.479-5.863l.1,0h.1a13.224,13.224,0,0,1,11.325,5.575,6.684,6.684,0,0,1,2.208.475c.121.048.24.1.358.156a7.328,7.328,0,0,1,1.468.919c.15.119.3.243.438.375a8.808,8.808,0,0,1,1.88,2.53,10.007,10.007,0,0,1,.82,2.332,10.664,10.664,0,0,1,.177,1.086,10.858,10.858,0,0,1,.067,1.191,10.793,10.793,0,0,1-.1,1.483,10.312,10.312,0,0,1-.367,1.65,9.666,9.666,0,0,1-.7,1.674c-.1.193-.211.383-.327.567a8.547,8.547,0,0,1-1.221,1.547c-.106.106-.214.208-.326.309-.061.054-.123.109-.187.163a7.3,7.3,0,0,1-2.063,1.229c-1.049.407-2.158.639-3.218,1.014a14.719,14.719,0,0,0-3.756,1.828,4.03,4.03,0,0,0-1.305,1.391,1.493,1.493,0,0,0-.148.548s1.175-.427,3.955-1.318c2.115-.677,2.46-.514,2.5-.4a.085.085,0,0,1,0,.066c-.1.151-.207.3-.312.445a13.276,13.276,0,0,1-11.166,5.42Zm-16.017-14.327a5.265,5.265,0,0,0,2.615,4.83,20.5,20.5,0,0,1-1.045-6.631,22.035,22.035,0,0,1,.129-2.4A5.686,5.686,0,0,0-3970.274-1343.7Zm18.619-.937a4.445,4.445,0,0,0,4.445,4.446,4.445,4.445,0,0,0,4.444-4.446,4.445,4.445,0,0,0-4.444-4.446A4.445,4.445,0,0,0-3951.655-1344.635Zm-14.094,0a4.445,4.445,0,0,0,4.444,4.446,4.445,4.445,0,0,0,4.445-4.446,4.445,4.445,0,0,0-4.445-4.446A4.445,4.445,0,0,0-3965.748-1344.635Zm25.939-.864a21.794,21.794,0,0,1-.13,2.4,5.688,5.688,0,0,0,1.7-4.205,5.268,5.268,0,0,0-2.614-4.83A20.505,20.505,0,0,1-3939.81-1345.5Z" transform="translate(5265.327 2361.759)" fill="#fff" stroke="rgba(0,0,0,0)" stroke-miterlimit="10" stroke-width="1"/>
    </g>
  </g>
</svg>
