<svg xmlns="http://www.w3.org/2000/svg" width="25.566" height="28.426" viewBox="0 0 25.566 28.426">
  <g id="Group_164" data-name="Group 164" transform="translate(-1834.875 -1006.678)">
    <g id="Group_160" data-name="Group 160">
      <path id="Path_78" data-name="Path 78" d="M1849.18,1019.849l3.99-4.029-15.482-8.8a2.193,2.193,0,0,0-1.54-.31Z" fill="#fff"/>
    </g>
    <g id="Group_161" data-name="Group 161">
      <path id="Path_79" data-name="Path 79" d="M1835.05,1007.652a2.714,2.714,0,0,0-.175.994v24.486a2.7,2.7,0,0,0,.171.986l13.121-13.247Z" fill="#fff"/>
    </g>
    <g id="Group_162" data-name="Group 162">
      <path id="Path_80" data-name="Path 80" d="M1849.181,1021.893l-13.043,13.17a2.163,2.163,0,0,0,1.551-.306l15.509-8.815Z" fill="#fff"/>
    </g>
    <g id="Group_163" data-name="Group 163">
      <path id="Path_81" data-name="Path 81" d="M1859.28,1019.292l-4.814-2.737-4.272,4.316,4.3,4.337,4.785-2.719c1.548-.879,1.548-2.319,0-3.2" fill="#fff"/>
    </g>
  </g>
</svg>
